<svg width="1280" height="720" xmlns="http://www.w3.org/2000/svg" xmlns:xlink="http://www.w3.org/1999/xlink" overflow="hidden" viewBox="0 0 1280 720"><g><rect x="0" y="0" width="1280" height="720" fill="#FFFFFF"/><path d="M48.5001 65.0001C48.5001 50.3645 60.3645 38.5001 75.0001 38.5001 89.6356 38.5001 101.5 50.3645 101.5 65.0001 101.5 79.6356 89.6356 91.5 75.0001 91.5 60.3645 91.5 48.5001 79.6356 48.5001 65.0001Z" stroke="#1E2761" stroke-width="1.33333" stroke-linejoin="round" stroke-miterlimit="10" fill="#1E2761" fill-rule="evenodd"/><text fill="#FFFFFF" font-family="Calibri,Calibri_MSFontService,sans-serif" font-weight="700" font-size="24" transform="translate(68.3166 72)">6</text><text fill="#0F1530" font-family="Georgia,Georgia_MSFontService,sans-serif" font-weight="700" font-size="37.3333" transform="translate(115.2 77)">2</text><text fill="#0F1530" font-family="Georgia,Georgia_MSFontService,sans-serif" font-weight="700" font-size="37.3333" transform="translate(138.533 77)">×</text><text fill="#0F1530" font-family="Georgia,Georgia_MSFontService,sans-serif" font-weight="700" font-size="37.3333" transform="translate(164.867 77)">2 Matrix</text><text fill="#6B7BAE" font-family="Calibri,Calibri_MSFontService,sans-serif" font-style="italic" font-weight="400" font-size="17.3333" transform="translate(115.2 121)">Classify items along two independent dimensions to reveal positioning</text><rect x="1094.5" y="48.5001" width="135" height="38" stroke="#CADCFC" stroke-linejoin="round" stroke-miterlimit="10" fill="#E4ECFB"/><text fill="#1E2761" font-family="Consolas,Consolas_MSFontService,sans-serif" font-weight="700" font-size="13.3333" transform="translate(1124.93 72)">matrix_2x2</text><path d="M48.5001 144.5 1229.5 144.5" stroke="#D6DEEC" stroke-width="1.33333" stroke-linejoin="round" stroke-miterlimit="10" fill="none" fill-rule="evenodd"/><rect x="211.5" y="192.5" width="288" height="221" stroke="#FFFFFF" stroke-width="2.66667" stroke-linejoin="round" stroke-miterlimit="10" fill="#E4ECFB"/><text fill="#1E2761" font-family="Calibri,Calibri_MSFontService,sans-serif" font-weight="700" font-size="14.6667" transform="translate(230.4 231)">QUESTION MARKS</text><rect x="499.5" y="192.5" width="288" height="221" stroke="#FFFFFF" stroke-width="2.66667" stroke-linejoin="round" stroke-miterlimit="10" fill="#CADCFC"/><text fill="#1E2761" font-family="Calibri,Calibri_MSFontService,sans-serif" font-weight="700" font-size="14.6667" transform="translate(518.4 231)">STARS</text><rect x="211.5" y="413.5" width="288" height="221" stroke="#FFFFFF" stroke-width="2.66667" stroke-linejoin="round" stroke-miterlimit="10" fill="#E4ECFB"/><text fill="#1E2761" font-family="Calibri,Calibri_MSFontService,sans-serif" font-weight="700" font-size="14.6667" transform="translate(230.4 452)">DOGS</text><rect x="499.5" y="413.5" width="288" height="221" stroke="#FFFFFF" stroke-width="2.66667" stroke-linejoin="round" stroke-miterlimit="10" fill="#CADCFC"/><text fill="#1E2761" font-family="Calibri,Calibri_MSFontService,sans-serif" font-weight="700" font-size="14.6667" transform="translate(518.4 452)">CASH COWS</text><text fill="#6B7BAE" font-family="Consolas,Consolas_MSFontService,sans-serif" font-weight="700" font-size="13.3333" transform="translate(162.667 211)">HIGH</text><text fill="#6B7BAE" font-family="Consolas,Consolas_MSFontService,sans-serif" font-weight="700" font-size="13.3333" transform="translate(170 624)">LOW</text><text fill="#6B7BAE" font-family="Calibri,Calibri_MSFontService,sans-serif" font-style="italic" font-weight="400" font-size="13.3333" transform="translate(121.667 409)">Y</text><text fill="#6B7BAE" font-family="Calibri,Calibri_MSFontService,sans-serif" font-style="italic" font-weight="400" font-size="13.3333" transform="translate(128.167 409)">-</text><text fill="#6B7BAE" font-family="Calibri,Calibri_MSFontService,sans-serif" font-style="italic" font-weight="400" font-size="13.3333" transform="translate(132.167 409)">AXIS LABEL</text><text fill="#6B7BAE" font-family="Calibri,Calibri_MSFontService,sans-serif" font-style="italic" font-weight="400" font-size="13.3333" transform="translate(79.6667 425)">(e.g. Market growth)</text><text fill="#6B7BAE" font-family="Consolas,Consolas_MSFontService,sans-serif" font-weight="700" font-size="13.3333" transform="translate(211.2 658)">LOW</text><text fill="#6B7BAE" font-family="Consolas,Consolas_MSFontService,sans-serif" font-weight="700" font-size="13.3333" transform="translate(757.867 658)">HIGH</text><text fill="#6B7BAE" font-family="Calibri,Calibri_MSFontService,sans-serif" font-style="italic" font-weight="400" font-size="13.3333" transform="translate(410.783 690)">X</text><text fill="#6B7BAE" font-family="Calibri,Calibri_MSFontService,sans-serif" font-style="italic" font-weight="400" font-size="13.3333" transform="translate(417.783 690)">-</text><text fill="#6B7BAE" font-family="Calibri,Calibri_MSFontService,sans-serif" font-style="italic" font-weight="400" font-size="13.3333" transform="translate(421.783 690)">AXIS LABEL (e.g. Market share)</text><path d="M341 324.5C341 316.492 347.492 310 355.5 310 363.508 310 370 316.492 370 324.5 370 332.508 363.508 339 355.5 339 347.492 339 341 332.508 341 324.5Z" stroke="#FFFFFF" stroke-width="2" stroke-linejoin="round" stroke-miterlimit="10" fill="#F39C12" fill-rule="evenodd"/><text fill="#0F1530" font-family="Calibri,Calibri_MSFontService,sans-serif" font-weight="700" font-size="12" transform="translate(372.48 329)">Item A</text><path d="M612 289.5C612 281.492 618.268 275 626 275 633.732 275 640 281.492 640 289.5 640 297.508 633.732 304 626 304 618.268 304 612 297.508 612 289.5Z" stroke="#FFFFFF" stroke-width="2" stroke-linejoin="round" stroke-miterlimit="10" fill="#F39C12" fill-rule="evenodd"/><text fill="#0F1530" font-family="Calibri,Calibri_MSFontService,sans-serif" font-weight="700" font-size="12" transform="translate(643.2 293)">Item B</text><path d="M646 479C646 471.268 652.492 465 660.5 465 668.508 465 675 471.268 675 479 675 486.732 668.508 493 660.5 493 652.492 493 646 486.732 646 479Z" stroke="#FFFFFF" stroke-width="2" stroke-linejoin="round" stroke-miterlimit="10" fill="#F39C12" fill-rule="evenodd"/><text fill="#0F1530" font-family="Calibri,Calibri_MSFontService,sans-serif" font-weight="700" font-size="12" transform="translate(677.76 483)">Item C</text><path d="M370 545.5C370 537.492 376.268 531 384 531 391.732 531 398 537.492 398 545.5 398 553.508 391.732 560 384 560 376.268 560 370 553.508 370 545.5Z" stroke="#FFFFFF" stroke-width="2" stroke-linejoin="round" stroke-miterlimit="10" fill="#F39C12" fill-rule="evenodd"/><text fill="#0F1530" font-family="Calibri,Calibri_MSFontService,sans-serif" font-weight="700" font-size="12" transform="translate(401.28 550)">Item D</text><text fill="#6B7BAE" font-family="Consolas,Consolas_MSFontService,sans-serif" font-weight="700" font-size="13.3333" transform="translate(864 211)">SLOT PATTERN</text><text fill="#0F1530" font-family="Consolas,Consolas_MSFontService,sans-serif" font-weight="400" font-size="16" transform="translate(864 260)">[x_axis_label, y_axis_label,</text><text fill="#0F1530" font-family="Consolas,Consolas_MSFontService,sans-serif" font-weight="400" font-size="16" transform="translate(872.833 279)">quadrant_names[4],</text><text fill="#0F1530" font-family="Consolas,Consolas_MSFontService,sans-serif" font-weight="400" font-size="16" transform="translate(872.833 298)">items[ {label, x, y} ]]</text><text fill="#6B7BAE" font-family="Consolas,Consolas_MSFontService,sans-serif" font-weight="700" font-size="13.3333" transform="translate(864 365)">CAPACITY</text><text fill="#0F1530" font-family="Calibri,Calibri_MSFontService,sans-serif" font-weight="400" font-size="16" transform="translate(864 394)">4 quadrants · 4</text><text fill="#0F1530" font-family="Calibri,Calibri_MSFontService,sans-serif" font-weight="400" font-size="16" transform="translate(960.693 394)">–</text><text fill="#0F1530" font-family="Calibri,Calibri_MSFontService,sans-serif" font-weight="400" font-size="16" transform="translate(968.693 394)">12 items</text><text fill="#6B7BAE" font-family="Consolas,Consolas_MSFontService,sans-serif" font-weight="700" font-size="13.3333" transform="translate(864 442)">VARIANTS</text><text fill="#0F1530" font-family="Calibri,Calibri_MSFontService,sans-serif" font-weight="400" font-size="16" transform="translate(864 485)">bcg_growth_share · eisenhower</text><text fill="#0F1530" font-family="Calibri,Calibri_MSFontService,sans-serif" font-weight="400" font-size="16" transform="translate(864 504)">effort_impact · risk_matrix</text><text fill="#0F1530" font-family="Calibri,Calibri_MSFontService,sans-serif" font-weight="400" font-size="16" transform="translate(864 523)">value_complexity</text></g></svg>