<svg viewBox="0 0 1280 720" width="1280" height="720" xmlns="http://www.w3.org/2000/svg" xmlns:xlink="http://www.w3.org/1999/xlink" overflow="hidden"><defs><filter id="fx0" x="-10%" y="-10%" width="120%" height="120%" filterUnits="userSpaceOnUse" primitiveUnits="userSpaceOnUse"><feComponentTransfer color-interpolation-filters="sRGB"><feFuncR type="discrete" tableValues="0 0"/><feFuncG type="discrete" tableValues="0 0"/><feFuncB type="discrete" tableValues="0 0"/><feFuncA type="linear" slope="0.14902" intercept="0"/></feComponentTransfer><feGaussianBlur stdDeviation="7.40741 7.40741"/></filter><filter id="fx1" x="-10%" y="-10%" width="120%" height="120%" filterUnits="userSpaceOnUse" primitiveUnits="userSpaceOnUse"><feComponentTransfer color-interpolation-filters="sRGB"><feFuncR type="discrete" tableValues="0 0"/><feFuncG type="discrete" tableValues="0 0"/><feFuncB type="discrete" tableValues="0 0"/><feFuncA type="linear" slope="0.14902" intercept="0"/></feComponentTransfer><feGaussianBlur stdDeviation="7.40741 7.37419"/></filter><filter id="fx2" x="-10%" y="-10%" width="120%" height="120%" filterUnits="userSpaceOnUse" primitiveUnits="userSpaceOnUse"><feComponentTransfer color-interpolation-filters="sRGB"><feFuncR type="discrete" tableValues="0 0"/><feFuncG type="discrete" tableValues="0 0"/><feFuncB type="discrete" tableValues="0 0"/><feFuncA type="linear" slope="0.14902" intercept="0"/></feComponentTransfer><feGaussianBlur stdDeviation="7.40741 7.40741"/></filter><filter id="fx3" x="-10%" y="-10%" width="120%" height="120%" filterUnits="userSpaceOnUse" primitiveUnits="userSpaceOnUse"><feComponentTransfer color-interpolation-filters="sRGB"><feFuncR type="discrete" tableValues="0 0"/><feFuncG type="discrete" tableValues="0 0"/><feFuncB type="discrete" tableValues="0 0"/><feFuncA type="linear" slope="0.14902" intercept="0"/></feComponentTransfer><feGaussianBlur stdDeviation="7.40741 7.37881"/></filter><filter id="fx4" x="-10%" y="-10%" width="120%" height="120%" filterUnits="userSpaceOnUse" primitiveUnits="userSpaceOnUse"><feComponentTransfer color-interpolation-filters="sRGB"><feFuncR type="discrete" tableValues="0 0"/><feFuncG type="discrete" tableValues="0 0"/><feFuncB type="discrete" tableValues="0 0"/><feFuncA type="linear" slope="0.14902" intercept="0"/></feComponentTransfer><feGaussianBlur stdDeviation="7.43526 7.37881"/></filter><filter id="fx5" x="-10%" y="-10%" width="120%" height="120%" filterUnits="userSpaceOnUse" primitiveUnits="userSpaceOnUse"><feComponentTransfer color-interpolation-filters="sRGB"><feFuncR type="discrete" tableValues="0 0"/><feFuncG type="discrete" tableValues="0 0"/><feFuncB type="discrete" tableValues="0 0"/><feFuncA type="linear" slope="0.14902" intercept="0"/></feComponentTransfer><feGaussianBlur stdDeviation="7.40741 7.37419"/></filter><filter id="fx6" x="-10%" y="-10%" width="120%" height="120%" filterUnits="userSpaceOnUse" primitiveUnits="userSpaceOnUse"><feComponentTransfer color-interpolation-filters="sRGB"><feFuncR type="discrete" tableValues="0 0"/><feFuncG type="discrete" tableValues="0 0"/><feFuncB type="discrete" tableValues="0 0"/><feFuncA type="linear" slope="0.14902" intercept="0"/></feComponentTransfer><feGaussianBlur stdDeviation="7.40741 7.37881"/></filter><filter id="fx7" x="-10%" y="-10%" width="120%" height="120%" filterUnits="userSpaceOnUse" primitiveUnits="userSpaceOnUse"><feComponentTransfer color-interpolation-filters="sRGB"><feFuncR type="discrete" tableValues="0 0"/><feFuncG type="discrete" tableValues="0 0"/><feFuncB type="discrete" tableValues="0 0"/><feFuncA type="linear" slope="0.14902" intercept="0"/></feComponentTransfer><feGaussianBlur stdDeviation="7.40741 7.37419"/></filter><filter id="fx8" x="-10%" y="-10%" width="120%" height="120%" filterUnits="userSpaceOnUse" primitiveUnits="userSpaceOnUse"><feComponentTransfer color-interpolation-filters="sRGB"><feFuncR type="discrete" tableValues="0 0"/><feFuncG type="discrete" tableValues="0 0"/><feFuncB type="discrete" tableValues="0 0"/><feFuncA type="linear" slope="0.14902" intercept="0"/></feComponentTransfer><feGaussianBlur stdDeviation="7.40741 7.40741"/></filter><filter id="fx9" x="-10%" y="-10%" width="120%" height="120%" filterUnits="userSpaceOnUse" primitiveUnits="userSpaceOnUse"><feComponentTransfer color-interpolation-filters="sRGB"><feFuncR type="discrete" tableValues="0 0"/><feFuncG type="discrete" tableValues="0 0"/><feFuncB type="discrete" tableValues="0 0"/><feFuncA type="linear" slope="0.14902" intercept="0"/></feComponentTransfer><feGaussianBlur stdDeviation="7.40741 7.37419"/></filter><filter id="fx10" x="-10%" y="-10%" width="120%" height="120%" filterUnits="userSpaceOnUse" primitiveUnits="userSpaceOnUse"><feComponentTransfer color-interpolation-filters="sRGB"><feFuncR type="discrete" tableValues="0 0"/><feFuncG type="discrete" tableValues="0 0"/><feFuncB type="discrete" tableValues="0 0"/><feFuncA type="linear" slope="0.14902" intercept="0"/></feComponentTransfer><feGaussianBlur stdDeviation="7.40741 7.37881"/></filter><filter id="fx11" x="-10%" y="-10%" width="120%" height="120%" filterUnits="userSpaceOnUse" primitiveUnits="userSpaceOnUse"><feComponentTransfer color-interpolation-filters="sRGB"><feFuncR type="discrete" tableValues="0 0"/><feFuncG type="discrete" tableValues="0 0"/><feFuncB type="discrete" tableValues="0 0"/><feFuncA type="linear" slope="0.14902" intercept="0"/></feComponentTransfer><feGaussianBlur stdDeviation="7.43526 7.4359"/></filter><filter id="fx12" x="-10%" y="-10%" width="120%" height="120%" filterUnits="userSpaceOnUse" primitiveUnits="userSpaceOnUse"><feComponentTransfer color-interpolation-filters="sRGB"><feFuncR type="discrete" tableValues="0 0"/><feFuncG type="discrete" tableValues="0 0"/><feFuncB type="discrete" tableValues="0 0"/><feFuncA type="linear" slope="0.14902" intercept="0"/></feComponentTransfer><feGaussianBlur stdDeviation="7.40741 7.40741"/></filter><filter id="fx13" x="-10%" y="-10%" width="120%" height="120%" filterUnits="userSpaceOnUse" primitiveUnits="userSpaceOnUse"><feComponentTransfer color-interpolation-filters="sRGB"><feFuncR type="discrete" tableValues="0 0"/><feFuncG type="discrete" tableValues="0 0"/><feFuncB type="discrete" tableValues="0 0"/><feFuncA type="linear" slope="0.14902" intercept="0"/></feComponentTransfer><feGaussianBlur stdDeviation="7.40741 7.37881"/></filter><filter id="fx14" x="-10%" y="-10%" width="120%" height="120%" filterUnits="userSpaceOnUse" primitiveUnits="userSpaceOnUse"><feComponentTransfer color-interpolation-filters="sRGB"><feFuncR type="discrete" tableValues="0 0"/><feFuncG type="discrete" tableValues="0 0"/><feFuncB type="discrete" tableValues="0 0"/><feFuncA type="linear" slope="0.14902" intercept="0"/></feComponentTransfer><feGaussianBlur stdDeviation="7.40741 7.40741"/></filter><filter id="fx15" x="-10%" y="-10%" width="120%" height="120%" filterUnits="userSpaceOnUse" primitiveUnits="userSpaceOnUse"><feComponentTransfer color-interpolation-filters="sRGB"><feFuncR type="discrete" tableValues="0 0"/><feFuncG type="discrete" tableValues="0 0"/><feFuncB type="discrete" tableValues="0 0"/><feFuncA type="linear" slope="0.14902" intercept="0"/></feComponentTransfer><feGaussianBlur stdDeviation="7.40741 7.37419"/></filter><filter id="fx16" x="-10%" y="-10%" width="120%" height="120%" filterUnits="userSpaceOnUse" primitiveUnits="userSpaceOnUse"><feComponentTransfer color-interpolation-filters="sRGB"><feFuncR type="discrete" tableValues="0 0"/><feFuncG type="discrete" tableValues="0 0"/><feFuncB type="discrete" tableValues="0 0"/><feFuncA type="linear" slope="0.14902" intercept="0"/></feComponentTransfer><feGaussianBlur stdDeviation="7.40741 7.40741"/></filter><filter id="fx17" x="-10%" y="-10%" width="120%" height="120%" filterUnits="userSpaceOnUse" primitiveUnits="userSpaceOnUse"><feComponentTransfer color-interpolation-filters="sRGB"><feFuncR type="discrete" tableValues="0 0"/><feFuncG type="discrete" tableValues="0 0"/><feFuncB type="discrete" tableValues="0 0"/><feFuncA type="linear" slope="0.14902" intercept="0"/></feComponentTransfer><feGaussianBlur stdDeviation="7.40741 7.37881"/></filter><filter id="fx18" x="-10%" y="-10%" width="120%" height="120%" filterUnits="userSpaceOnUse" primitiveUnits="userSpaceOnUse"><feComponentTransfer color-interpolation-filters="sRGB"><feFuncR type="discrete" tableValues="0 0"/><feFuncG type="discrete" tableValues="0 0"/><feFuncB type="discrete" tableValues="0 0"/><feFuncA type="linear" slope="0.14902" intercept="0"/></feComponentTransfer><feGaussianBlur stdDeviation="7.43526 7.37881"/></filter><filter id="fx19" x="-10%" y="-10%" width="120%" height="120%" filterUnits="userSpaceOnUse" primitiveUnits="userSpaceOnUse"><feComponentTransfer color-interpolation-filters="sRGB"><feFuncR type="discrete" tableValues="0 0"/><feFuncG type="discrete" tableValues="0 0"/><feFuncB type="discrete" tableValues="0 0"/><feFuncA type="linear" slope="0.14902" intercept="0"/></feComponentTransfer><feGaussianBlur stdDeviation="7.40741 7.37419"/></filter><filter id="fx20" x="-10%" y="-10%" width="120%" height="120%" filterUnits="userSpaceOnUse" primitiveUnits="userSpaceOnUse"><feComponentTransfer color-interpolation-filters="sRGB"><feFuncR type="discrete" tableValues="0 0"/><feFuncG type="discrete" tableValues="0 0"/><feFuncB type="discrete" tableValues="0 0"/><feFuncA type="linear" slope="0.14902" intercept="0"/></feComponentTransfer><feGaussianBlur stdDeviation="7.40741 7.37881"/></filter><clipPath id="clip21"><rect x="0" y="0" width="1280" height="720"/></clipPath><clipPath id="clip22"><rect x="0" y="0" width="124" height="74"/></clipPath><clipPath id="clip23"><rect x="0" y="0" width="89" height="86"/></clipPath><clipPath id="clip24"><rect x="0" y="0" width="89" height="86"/></clipPath><clipPath id="clip25"><rect x="0" y="0" width="89" height="86"/></clipPath><clipPath id="clip26"><rect x="0" y="0" width="124" height="74"/></clipPath><clipPath id="clip27"><rect x="0" y="0" width="124" height="74"/></clipPath><clipPath id="clip28"><rect x="0" y="0" width="124" height="74"/></clipPath><clipPath id="clip29"><rect x="0" y="0" width="89" height="87"/></clipPath><clipPath id="clip30"><rect x="0" y="0" width="89" height="86"/></clipPath><clipPath id="clip31"><rect x="0" y="0" width="124" height="74"/></clipPath><clipPath id="clip32"><rect x="0" y="0" width="89" height="86"/></clipPath><clipPath id="clip33"><rect x="0" y="0" width="89" height="86"/></clipPath><clipPath id="clip34"><rect x="0" y="0" width="124" height="74"/></clipPath><clipPath id="clip35"><rect x="0" y="0" width="89" height="86"/></clipPath></defs><g clip-path="url(#clip21)"><rect x="0" y="0" width="1280" height="720" fill="#FFFFFF"/><g filter="url(#fx0)" transform="matrix(3 0 0 3 607 181)"><g transform="translate(-2.84217e-14 -7.10543e-15)"><rect x="22.6667" y="22.6667" width="78.6667" height="28.6667" fill="#E63946"/></g></g><rect x="675" y="237" width="236" height="86" fill="#E63946"/><g filter="url(#fx1)" transform="matrix(3 0 0 3.01351 -4 107)"><g clip-path="url(#clip22)"><rect x="22.6667" y="22.565" width="78.6667" height="28.87" fill="#E63946"/></g></g><rect x="64" y="163" width="236" height="87" fill="#E63946"/><g filter="url(#fx2)" transform="matrix(3 0 0 3 301 144)"><g><rect x="22.6667" y="22.6667" width="78.6667" height="28.6667" fill="#E63946"/></g></g><rect x="369" y="200" width="236" height="86" fill="#E63946"/><g filter="url(#fx3)" transform="matrix(3 0 0 3.01163 201 107)"><g clip-path="url(#clip23)"><path d="M0 40.8417 10.2104 0 43.4981 0 33.2877 40.8417Z" fill="#E63946" fill-rule="evenodd" transform="matrix(-1.00388 0 0 1 66.3333 22.5792)"/></g></g><path d="M0 123 30.75 0 131 0 100.25 123Z" fill="#E63946" fill-rule="evenodd" transform="matrix(-1 0 0 1 400 163)"/><g filter="url(#fx4)" transform="matrix(2.98876 0 0 3.01163 507 144)"><g clip-path="url(#clip24)"><path d="M0 40.8417 10.2104 0 43.166 0 32.9556 40.8417Z" fill="#E63946" fill-rule="evenodd" transform="matrix(-1.00765 0 0 1 66.2481 22.5792)"/></g></g><path d="M0 123 30.75 0 130 0 99.25 123Z" fill="#E63946" fill-rule="evenodd" transform="matrix(-1 0 0 1 705 200)"/><g filter="url(#fx5)" transform="matrix(3 0 0 3.01351 912 217)"><g><rect x="22.6667" y="22.565" width="78.6667" height="28.87" fill="#E63946"/></g></g><rect x="980" y="273" width="236" height="87" fill="#E63946"/><g filter="url(#fx6)" transform="matrix(3 0 0 3.01163 812 181)"><g clip-path="url(#clip25)" transform="translate(-5.68434e-14 -7.10543e-15)"><path d="M0 40.8417 10.2104 0 43.4981 0 33.2877 40.8417Z" fill="#E63946" fill-rule="evenodd" transform="matrix(-1.00388 0 0 1 66.3333 22.5791)"/></g></g><path d="M0 123 30.75 0 131 0 100.25 123Z" fill="#E63946" fill-rule="evenodd" transform="matrix(-1 0 0 1 1011 237)"/><g filter="url(#fx7)" transform="matrix(3 0 0 3.01351 607 323)"><g clip-path="url(#clip26)" transform="translate(-2.84217e-14 0)"><rect x="22.6667" y="22.565" width="78.6667" height="28.87" fill="#457B9D"/></g></g><rect x="675" y="379" width="236" height="87" fill="#457B9D"/><g filter="url(#fx8)" transform="matrix(3 0 0 3 -4 250)"><g clip-path="url(#clip27)"><rect x="22.6667" y="22.6667" width="78.6667" height="28.6667" fill="#457B9D"/></g></g><rect x="64" y="306" width="236" height="86" fill="#457B9D"/><g filter="url(#fx9)" transform="matrix(3 0 0 3.01351 301 286)"><g clip-path="url(#clip28)" transform="matrix(1 0 0 1 0 1.42109e-14)"><rect x="22.6667" y="22.565" width="78.6667" height="28.87" fill="#457B9D"/></g></g><rect x="369" y="342" width="236" height="87" fill="#457B9D"/><g filter="url(#fx10)" transform="matrix(3 0 0 3.01163 201 250)"><g transform="matrix(1 0 0 1 0 -1.42109e-14)"><path d="M0 40.8417 10.2104 0 43.4981 0 33.2877 40.8417Z" fill="#457B9D" fill-rule="evenodd" transform="matrix(-1.00388 0 0 1 66.3333 22.5792)"/></g></g><path d="M0 123 30.75 0 131 0 100.25 123Z" fill="#457B9D" fill-rule="evenodd" transform="matrix(-1 0 0 1 400 306)"/><g filter="url(#fx11)" transform="matrix(2.98876 0 0 2.98851 507 286)"><g clip-path="url(#clip29)"><path d="M0 41.4887 10.3722 0 43.4962 0 33.1241 41.4887Z" fill="#457B9D" fill-rule="evenodd" transform="matrix(-1 0 0 1.00009 66.2481 22.7538)"/></g></g><path d="M0 124 31 0 130 0 99 124Z" fill="#457B9D" fill-rule="evenodd" transform="matrix(-1 0 0 1 705 342)"/><g filter="url(#fx12)" transform="matrix(3 0 0 3 912 360)"><g><rect x="22.6667" y="22.6667" width="78.6667" height="28.6667" fill="#457B9D"/></g></g><rect x="980" y="416" width="236" height="86" fill="#457B9D"/><g filter="url(#fx13)" transform="matrix(3 0 0 3.01163 812 323)"><g clip-path="url(#clip30)" transform="translate(-5.68434e-14 -1.42109e-14)"><path d="M0 40.8417 10.2104 0 43.4981 0 33.2877 40.8417Z" fill="#457B9D" fill-rule="evenodd" transform="matrix(-1.00388 0 0 1 66.3333 22.5791)"/></g></g><path d="M0 123 30.75 0 131 0 100.25 123Z" fill="#457B9D" fill-rule="evenodd" transform="matrix(-1 0 0 1 1011 379)"/><g filter="url(#fx14)" transform="matrix(3 0 0 3 607 466)"><g transform="translate(-2.84217e-14 -2.84217e-14)"><rect x="22.6667" y="22.6667" width="78.6667" height="28.6667" fill="#A5A5A5"/></g></g><rect x="675" y="522" width="236" height="86" fill="#A5A5A5"/><g filter="url(#fx15)" transform="matrix(3 0 0 3.01351 -4 392)"><g clip-path="url(#clip31)"><rect x="22.6667" y="22.565" width="78.6667" height="28.87" fill="#A5A5A5"/></g></g><rect x="64" y="448" width="236" height="87" fill="#A5A5A5"/><g filter="url(#fx16)" transform="matrix(3 0 0 3 301 429)"><g><rect x="22.6667" y="22.6667" width="78.6667" height="28.6667" fill="#A5A5A5"/></g></g><rect x="369" y="485" width="236" height="86" fill="#A5A5A5"/><g filter="url(#fx17)" transform="matrix(3 0 0 3.01163 201 392)"><g clip-path="url(#clip32)"><path d="M0 40.8417 10.2104 0 43.4981 0 33.2877 40.8417Z" fill="#A5A5A5" fill-rule="evenodd" transform="matrix(-1.00388 0 0 1 66.3333 22.5791)"/></g></g><path d="M0 123 30.75 0 131 0 100.25 123Z" fill="#A5A5A5" fill-rule="evenodd" transform="matrix(-1 0 0 1 400 448)"/><g filter="url(#fx18)" transform="matrix(2.98876 0 0 3.01163 507 429)"><g clip-path="url(#clip33)"><path d="M0 40.8417 10.2104 0 43.166 0 32.9556 40.8417Z" fill="#A5A5A5" fill-rule="evenodd" transform="matrix(-1.00765 0 0 1 66.2481 22.5792)"/></g></g><path d="M0 123 30.75 0 130 0 99.25 123Z" fill="#A5A5A5" fill-rule="evenodd" transform="matrix(-1 0 0 1 705 485)"/><g filter="url(#fx19)" transform="matrix(3 0 0 3.01351 912 502)"><g clip-path="url(#clip34)"><rect x="22.6667" y="22.565" width="78.6667" height="28.87" fill="#A5A5A5"/></g></g><rect x="980" y="558" width="236" height="87" fill="#A5A5A5"/><g filter="url(#fx20)" transform="matrix(3 0 0 3.01163 812 466)"><g clip-path="url(#clip35)" transform="translate(-5.68434e-14 -2.84217e-14)"><path d="M0 40.8417 10.2104 0 43.4981 0 33.2877 40.8417Z" fill="#A5A5A5" fill-rule="evenodd" transform="matrix(-1.00388 0 0 1 66.3333 22.5791)"/></g></g><path d="M0 123 30.75 0 131 0 100.25 123Z" fill="#A5A5A5" fill-rule="evenodd" transform="matrix(-1 0 0 1 1011 522)"/><text fill="#FFFFFF" font-family="Lato,Lato_MSFontService,sans-serif" font-weight="700" font-size="18.6667" transform="translate(91.7013 201)">Content</text><text fill="#FFFFFF" font-family="Lato,Lato_MSFontService,sans-serif" font-weight="700" font-size="18.6667" transform="translate(91.7013 226)">Development</text><text fill="#FFFFFF" font-family="Lato,Lato_MSFontService,sans-serif" font-weight="700" font-size="18.6667" transform="translate(91.7013 343)">Paid/Organic</text><text fill="#FFFFFF" font-family="Lato,Lato_MSFontService,sans-serif" font-weight="700" font-size="18.6667" transform="translate(91.7013 368)">Search</text><text fill="#FFFFFF" font-family="Lato,Lato_MSFontService,sans-serif" font-weight="700" font-size="18.6667" transform="translate(91.7013 486)">Email</text><text fill="#FFFFFF" font-family="Lato,Lato_MSFontService,sans-serif" font-weight="700" font-size="18.6667" transform="translate(91.7013 511)">Marketing</text><text fill="#FFFFFF" font-family="Lato,Lato_MSFontService,sans-serif" font-weight="700" font-size="42.6667" transform="translate(310.078 241)">01</text><text fill="#FFFFFF" font-family="Lato,Lato_MSFontService,sans-serif" font-weight="700" font-size="42.6667" transform="translate(310.078 383)">04</text><text fill="#FFFFFF" font-family="Lato,Lato_MSFontService,sans-serif" font-weight="700" font-size="42.6667" transform="translate(310.078 526)">07</text><text fill="#FFFFFF" font-family="Calibri,Calibri_MSFontService,sans-serif" font-weight="400" font-size="13.3333" transform="translate(416.542 239)">Whitepaper Development</text><text fill="#FFFFFF" font-family="Calibri,Calibri_MSFontService,sans-serif" font-weight="400" font-size="13.3333" transform="translate(416.542 381)">Analytics Implementation</text><text fill="#FFFFFF" font-family="Calibri,Calibri_MSFontService,sans-serif" font-weight="400" font-size="13.3333" transform="translate(416.542 524)">In Trial Drip Campaign</text><text fill="#FFFFFF" font-family="Lato,Lato_MSFontService,sans-serif" font-weight="700" font-size="42.6667" transform="translate(615.333 278)">02</text><text fill="#FFFFFF" font-family="Lato,Lato_MSFontService,sans-serif" font-weight="700" font-size="42.6667" transform="translate(615.333 420)">05</text><text fill="#FFFFFF" font-family="Lato,Lato_MSFontService,sans-serif" font-weight="700" font-size="42.6667" transform="translate(615.333 563)">08</text><text fill="#FFFFFF" font-family="Calibri,Calibri_MSFontService,sans-serif" font-weight="400" font-size="13.3333" transform="translate(721.797 418)">On</text><text fill="#FFFFFF" font-family="Calibri,Calibri_MSFontService,sans-serif" font-weight="400" font-size="13.3333" transform="translate(737.63 418)">-</text><text fill="#FFFFFF" font-family="Calibri,Calibri_MSFontService,sans-serif" font-weight="400" font-size="13.3333" transform="translate(741.63 418)">Site SEO</text><text fill="#FFFFFF" font-family="Calibri,Calibri_MSFontService,sans-serif" font-weight="400" font-size="13.3333" transform="translate(721.797 436)">Improvements</text><text fill="#FFFFFF" font-family="Calibri,Calibri_MSFontService,sans-serif" font-weight="400" font-size="13.3333" transform="translate(721.797 275)">Newsletter Sign Up Plugin</text><text fill="#FFFFFF" font-family="Calibri,Calibri_MSFontService,sans-serif" font-weight="400" font-size="13.3333" transform="translate(721.797 561)">Onboarding Optimization</text><text fill="#FFFFFF" font-family="Lato,Lato_MSFontService,sans-serif" font-weight="700" font-size="42.6667" transform="translate(920.588 314)">03</text><text fill="#FFFFFF" font-family="Lato,Lato_MSFontService,sans-serif" font-weight="700" font-size="42.6667" transform="translate(920.588 457)">06</text><text fill="#FFFFFF" font-family="Lato,Lato_MSFontService,sans-serif" font-weight="700" font-size="42.6667" transform="translate(920.588 599)">09</text><text fill="#FFFFFF" font-family="Calibri,Calibri_MSFontService,sans-serif" font-weight="400" font-size="13.3333" transform="translate(1027.05 312)">Blog Post Developments</text><text fill="#FFFFFF" font-family="Calibri,Calibri_MSFontService,sans-serif" font-weight="400" font-size="13.3333" transform="translate(1027.05 455)">Ad</text><text fill="#FFFFFF" font-family="Calibri,Calibri_MSFontService,sans-serif" font-weight="400" font-size="13.3333" transform="translate(1041.72 455)">-</text><text fill="#FFFFFF" font-family="Calibri,Calibri_MSFontService,sans-serif" font-weight="400" font-size="13.3333" transform="translate(1045.72 455)">roll Campaign</text><text fill="#FFFFFF" font-family="Calibri,Calibri_MSFontService,sans-serif" font-weight="400" font-size="13.3333" transform="translate(1027.05 473)">Iteration</text><text fill="#FFFFFF" font-family="Calibri,Calibri_MSFontService,sans-serif" font-weight="400" font-size="13.3333" transform="translate(1027.05 597)">Conversion Initiative</text><text fill="#595959" font-family="Lato Black,Lato Black_MSFontService,sans-serif" font-weight="900" font-size="42.6667" transform="translate(62.8001 110)">STRATEGIC</text><text fill="#E63946" font-family="Lato Black,Lato Black_MSFontService,sans-serif" font-weight="900" font-size="42.6667" transform="translate(302.3 110)">ROADMAP</text><path d="M67 58 180.386 58.0001" stroke="#E63946" stroke-width="6" stroke-linecap="round" stroke-linejoin="round" stroke-miterlimit="10" fill="none" fill-rule="evenodd"/><text fill="#595959" font-family="Lato Black,Lato Black_MSFontService,sans-serif" font-weight="900" font-size="12" transform="translate(62.5907 683)">POWER</text><text fill="#E63946" font-family="Lato Black,Lato Black_MSFontService,sans-serif" font-weight="900" font-size="12" transform="translate(107.091 683)">SLIDES</text><text fill="#E63946" font-family="Lato Black,Lato Black_MSFontService,sans-serif" font-weight="900" font-size="12" transform="translate(1042.42 683)">WWW.POWERLIDES.COM</text><path d="M585 679.5C585 673.149 590.149 668 596.5 668 602.851 668 608 673.149 608 679.5 608 685.851 602.851 691 596.5 691 590.149 691 585 685.851 585 679.5Z" fill="#E63946" fill-rule="evenodd"/><text fill="#FFFFFF" font-family="Arial,Arial_MSFontService,sans-serif" font-weight="400" font-size="14.6667" transform="translate(592.205 685)">8</text><path d="M0 0 394.583 0.000104987" stroke="#E63946" stroke-linejoin="round" stroke-miterlimit="10" fill="none" fill-rule="evenodd" transform="matrix(-1 0 0 1 1023.08 680.5)"/><path d="M0 0 394.5 0.000104987" stroke="#E63946" stroke-linejoin="round" stroke-miterlimit="10" fill="none" fill-rule="evenodd" transform="matrix(-1 0 0 1 560 680.5)"/></g></svg>